<?xml version="1.0" standalone="no"?>
<!DOCTYPE svg PUBLIC "-//W3C//DTD SVG 20010904//EN"
 "http://www.w3.org/TR/2001/REC-SVG-20010904/DTD/svg10.dtd">
<svg version="1.0" xmlns="http://www.w3.org/2000/svg"
 width="500px" height="250px" viewBox="0 0 10 1080">

<g transform="translate(500,0) scale(-0.2,0.1)"
fill="#F4586630" stroke="none">
<path d="M6286 9790 c-103 -12 -183 -36 -224 -66 -97 -74 -95 -231 4 -312 l39
-32 131 0 c72 0 200 3 285 6 l154 7 42 43 c56 58 76 98 77 159 1 68 -38 135
-99 170 -41 24 -55 27 -187 30 -79 2 -178 0 -222 -5z"/>
<path d="M7455 9413 c-79 -19 -142 -182 -100 -262 8 -16 53 -75 101 -132 47
-57 108 -136 135 -176 69 -102 105 -127 189 -131 175 -10 259 130 180 297 -55
115 -217 320 -303 382 -36 26 -48 29 -111 28 -39 -1 -80 -3 -91 -6z"/>
<path d="M5165 9368 c-103 -37 -376 -274 -416 -363 -25 -54 -24 -135 1 -186
23 -45 93 -95 147 -105 70 -13 130 25 366 234 137 121 167 157 174 209 11 82
-42 179 -114 209 -38 16 -115 17 -158 2z"/>
<path d="M4420 8118 c-33 -17 -51 -35 -68 -68 -22 -42 -23 -54 -19 -165 6
-145 37 -304 77 -391 26 -59 34 -67 82 -89 127 -59 262 0 282 124 6 38 -34
406 -54 496 -11 48 -53 89 -107 104 -65 18 -144 13 -193 -11z"/>
<path d="M7959 8095 c-89 -46 -119 -105 -119 -233 0 -87 15 -127 63 -169 47
-41 97 -57 155 -48 126 19 184 92 184 230 0 112 -42 187 -127 226 -54 25 -100
23 -156 -6z"/>
<path d="M7217 7786 c-65 -18 -97 -43 -124 -96 -34 -66 -31 -135 8 -189 17
-24 160 -176 319 -339 158 -164 300 -312 315 -329 l27 -33 -27 -32 c-15 -18
-164 -173 -331 -345 -167 -172 -311 -327 -320 -344 -24 -47 -16 -154 15 -197
34 -48 91 -73 182 -79 l78 -6 356 354 355 353 63 -60 c34 -33 188 -184 342
-335 319 -314 331 -322 433 -299 92 20 152 97 152 194 0 67 -39 114 -373 453
l-330 334 351 353 352 354 0 63 c0 144 -53 216 -172 234 -80 12 -117 -13 -331
-223 -297 -291 -487 -472 -496 -472 -4 0 -149 138 -322 306 -173 168 -337 324
-365 345 -60 46 -92 53 -157 35z"/>
<path d="M4951 6844 c-70 -35 -103 -86 -109 -165 -4 -52 0 -68 26 -122 40 -78
168 -252 253 -339 79 -82 120 -98 204 -79 132 30 190 163 126 290 -32 61 -225
313 -280 364 -54 50 -104 77 -144 77 -13 0 -47 -12 -76 -26z"/>
<path d="M2351 6668 c-88 -47 -137 -146 -112 -228 18 -59 67 -108 163 -162 47
-26 125 -76 174 -111 49 -35 103 -71 121 -80 36 -19 108 -22 150 -6 64 24 133
119 133 184 0 111 -151 255 -387 367 -130 62 -179 70 -242 36z"/>
<path d="M1260 6625 c-168 -60 -299 -126 -352 -178 -101 -97 -86 -246 30 -314
73 -43 132 -38 262 21 58 27 150 66 205 87 54 22 116 50 137 64 73 49 99 153
59 241 -28 63 -120 124 -183 123 -18 0 -89 -20 -158 -44z"/>
<path d="M286 5756 c-60 -23 -104 -73 -156 -181 -91 -187 -147 -401 -121 -463
15 -35 88 -111 119 -123 61 -23 157 -4 205 40 38 34 51 61 97 194 21 62 55
157 75 212 44 123 45 192 2 248 -55 72 -144 101 -221 73z"/>
<path d="M5879 5737 c-87 -46 -135 -178 -94 -258 24 -46 89 -122 220 -258 169
-174 236 -202 341 -141 66 38 96 93 96 181 0 73 -12 93 -144 239 -121 134
-215 221 -260 243 -50 24 -107 21 -159 -6z"/>
<path d="M3230 5573 c-61 -22 -84 -40 -111 -87 -38 -67 -38 -114 1 -247 56
-190 111 -348 133 -381 30 -45 80 -68 147 -68 128 1 223 98 207 214 -7 50 -87
328 -117 410 -26 67 -80 133 -127 153 -32 13 -104 16 -133 6z"/>
<path d="M6829 4651 c-94 -59 -118 -154 -66 -257 41 -81 232 -366 269 -401 36
-35 94 -63 131 -63 37 0 125 49 153 85 14 19 30 50 35 69 24 89 -64 276 -229
488 -83 107 -200 138 -293 79z"/>
<path d="M105 4331 c-16 -10 -46 -35 -65 -55 -34 -36 -35 -40 -34 -110 3 -156
112 -508 174 -560 30 -25 105 -46 164 -46 44 0 107 47 140 103 36 61 34 121
-8 255 -19 59 -47 151 -62 205 -34 123 -67 177 -126 206 -57 27 -141 28 -183
2z"/>
<path d="M3525 4138 c-32 -22 -57 -49 -73 -80 -23 -45 -24 -49 -12 -140 25
-204 94 -460 132 -495 91 -83 235 -66 299 35 41 64 45 102 25 222 -24 145 -75
369 -92 402 -8 15 -30 40 -51 55 -30 23 -48 28 -107 31 -67 4 -74 2 -121 -30z"/>
<path d="M7133 3320 c-18 -4 -44 -15 -59 -25 -45 -29 -141 -257 -199 -470 -32
-116 -27 -145 32 -214 57 -67 118 -85 205 -61 58 16 95 55 138 144 53 112 120
316 127 391 8 91 -2 130 -48 180 -52 57 -115 75 -196 55z"/>
<path d="M805 3070 c-61 -9 -103 -36 -136 -88 -27 -42 -30 -54 -27 -109 3 -55
10 -70 51 -131 50 -73 281 -306 337 -341 96 -58 243 2 280 115 22 65 9 124
-42 190 -102 131 -320 353 -348 354 -3 0 -21 4 -40 8 -19 4 -53 5 -75 2z"/>
<path d="M3915 2761 c-71 -18 -157 -91 -171 -146 -11 -44 5 -119 58 -283 87
-270 117 -319 214 -348 95 -27 196 12 235 92 18 37 21 57 16 107 -9 110 -136
469 -184 519 -49 51 -110 73 -168 59z"/>
<path d="M1620 2254 c-14 -2 -58 -9 -98 -15 -201 -30 -402 -137 -567 -303
-248 -249 -366 -569 -334 -905 16 -173 44 -273 117 -416 220 -429 705 -677
1177 -600 174 28 364 109 506 215 129 96 266 263 341 415 110 221 136 524 68
790 -30 116 -126 304 -204 402 -182 225 -443 372 -730 412 -73 10 -221 13
-276 5z m266 -419 c218 -38 404 -186 516 -411 l42 -85 4 -147 c6 -189 -6 -265
-57 -367 -76 -153 -195 -271 -345 -344 -113 -55 -148 -62 -304 -62 -158 0
-207 12 -322 73 -182 97 -314 248 -364 417 -23 80 -22 397 2 461 39 104 87
176 182 270 77 78 111 104 180 138 47 23 110 48 140 56 73 19 217 20 326 1z"/>
<path d="M6400 2099 c-19 -6 -64 -32 -100 -57 -36 -25 -119 -83 -185 -128 -66
-46 -133 -96 -148 -112 -55 -57 -59 -194 -9 -254 32 -37 115 -78 160 -78 47 0
146 48 265 129 185 126 276 225 277 301 0 70 -49 154 -109 185 -38 19 -110 26
-151 14z"/>
<path d="M4599 1573 c-61 -63 -69 -80 -69 -150 0 -133 68 -190 260 -219 130
-20 330 -14 405 12 91 31 135 89 135 179 0 93 -49 163 -129 184 -44 12 -229
28 -416 37 l-140 6 -46 -49z"/>
</g>
</svg>
