<?xml version="1.0" standalone="no"?>
<!DOCTYPE svg PUBLIC "-//W3C//DTD SVG 20010904//EN"
 "http://www.w3.org/TR/2001/REC-SVG-20010904/DTD/svg10.dtd">
<svg version="1.0" xmlns="http://www.w3.org/2000/svg"
 width="256.000000pt" height="256.000000pt" viewBox="0 0 256.000000 256.000000"
 preserveAspectRatio="xMidYMid meet">

<g transform="translate(0.000000,256.000000) scale(0.100000,-0.100000)"
fill="#000000" stroke="none">
<path d="M1195 2517 c-45 -45 -50 -71 -39 -199 5 -59 7 -108 4 -108 -3 0 -36
-7 -74 -15 -118 -25 -238 -77 -330 -143 l-50 -35 -24 29 c-128 151 -167 181
-230 170 -43 -6 -99 -58 -107 -98 -15 -65 19 -116 149 -224 l49 -40 -35 -50
c-66 -92 -118 -212 -143 -330 -8 -38 -15 -71 -15 -74 0 -3 -49 -1 -108 4 -128
11 -154 6 -199 -39 -29 -29 -33 -39 -33 -85 0 -46 4 -56 33 -85 45 -45 71 -50
199 -39 59 5 108 7 108 4 0 -3 7 -36 15 -74 25 -118 77 -238 143 -330 l35 -50
-29 -24 c-151 -128 -181 -167 -170 -230 6 -43 58 -99 98 -107 65 -15 116 19
224 149 l40 49 50 -35 c92 -66 212 -118 330 -143 38 -8 71 -15 74 -15 3 0 1
-49 -4 -108 -11 -128 -6 -154 39 -199 29 -29 39 -33 85 -33 46 0 56 4 85 33
45 45 50 71 39 199 -5 59 -7 108 -4 108 3 0 36 7 74 15 118 25 238 77 330 143
l50 35 40 -49 c108 -130 159 -164 224 -149 40 8 92 64 98 107 11 63 -19 102
-170 230 l-29 24 35 50 c66 92 118 212 143 330 8 38 15 71 15 74 0 3 49 1 108
-4 128 -11 154 -6 199 39 29 29 33 39 33 85 0 46 -4 56 -33 85 -45 45 -71 50
-199 39 -59 -5 -108 -7 -108 -4 0 3 -7 36 -15 74 -25 118 -77 238 -143 330
l-35 50 49 40 c130 108 164 159 149 224 -8 40 -64 92 -107 98 -63 11 -102 -19
-230 -170 l-24 -29 -50 35 c-92 66 -212 118 -330 143 -38 8 -71 15 -74 15 -3
0 -1 49 4 108 11 128 6 154 -39 199 -29 29 -39 33 -85 33 -46 0 -56 -4 -85
-33z m119 -393 c32 -32 10 -94 -34 -94 -26 0 -50 27 -50 55 0 28 24 55 50 55
10 0 26 -7 34 -16z m129 -193 c244 -63 425 -244 488 -488 10 -42 19 -80 19
-85 0 -4 -65 -8 -143 -8 l-144 0 -13 43 c-35 117 -141 223 -257 258 l-43 12 0
144 c0 78 4 143 8 143 5 0 43 -9 85 -19z m-323 -149 l0 -148 -37 -22 c-74 -41
-149 -136 -174 -219 l-12 -43 -144 0 c-78 0 -143 4 -143 8 0 5 9 43 19 85 57
221 212 392 428 472 66 24 63 29 63 -133z m-372 106 c7 -7 12 -24 12 -38 0
-33 -17 -50 -50 -50 -14 0 -31 5 -38 12 -15 15 -15 61 0 76 7 7 24 12 38 12
14 0 31 -5 38 -12z m1140 0 c7 -7 12 -24 12 -38 0 -14 -5 -31 -12 -38 -7 -7
-24 -12 -38 -12 -14 0 -31 5 -38 12 -7 7 -12 24 -12 38 0 14 5 31 12 38 7 7
24 12 38 12 14 0 31 -5 38 -12z m-1374 -574 c32 -32 8 -84 -39 -84 -28 0 -55
24 -55 50 0 26 27 50 55 50 13 0 31 -7 39 -16z m1610 0 c32 -32 8 -84 -39 -84
-28 0 -55 24 -55 50 0 26 27 50 55 50 13 0 31 -7 39 -16z m-1215 -146 c25 -84
100 -179 174 -220 l37 -22 0 -148 c0 -99 -4 -148 -11 -148 -15 0 -140 50 -169
69 -158 98 -266 243 -311 418 -10 42 -19 80 -19 85 0 4 65 8 143 8 l144 0 12
-42z m1041 34 c0 -5 -9 -43 -19 -85 -63 -244 -244 -425 -488 -488 -42 -10 -80
-19 -85 -19 -4 0 -8 65 -8 143 l0 144 43 13 c117 35 223 141 258 258 l12 42
144 0 c78 0 143 -4 143 -8z m-1202 -454 c7 -7 12 -24 12 -38 0 -14 -5 -31 -12
-38 -7 -7 -24 -12 -38 -12 -14 0 -31 5 -38 12 -15 15 -15 61 0 76 15 15 61 15
76 0z m1140 0 c7 -7 12 -24 12 -38 0 -33 -17 -50 -50 -50 -33 0 -50 17 -50 50
0 14 5 31 12 38 15 15 61 15 76 0z m-574 -234 c32 -32 10 -94 -34 -94 -26 0
-50 27 -50 55 0 28 24 55 50 55 10 0 26 -7 34 -16z"/>
</g>
</svg>
