<?xml version="1.0" standalone="no"?>
<!DOCTYPE svg PUBLIC "-//W3C//DTD SVG 20010904//EN"
 "http://www.w3.org/TR/2001/REC-SVG-20010904/DTD/svg10.dtd">
<svg version="1.0" xmlns="http://www.w3.org/2000/svg"
 width="32.000000pt" height="32.000000pt" viewBox="0 0 32.000000 32.000000"
 preserveAspectRatio="xMidYMid meet">

<g transform="translate(0.000000,32.000000) scale(0.100000,-0.100000)"
fill="#000000" stroke="none">
<path d="M208 245 c-43 -24 -61 -39 -35 -29 13 5 17 1 17 -19 0 -14 4 -28 9
-31 16 -10 0 -46 -20 -46 -11 0 -22 -7 -25 -15 -9 -24 -24 -17 -24 10 0 14 3
25 8 25 4 0 7 15 8 34 l0 35 -38 -22 c-36 -21 -38 -24 -37 -72 0 -27 4 -58 7
-68 7 -17 9 -16 30 3 12 12 27 18 32 15 6 -3 10 -1 10 4 0 6 9 11 20 11 12 0
20 7 20 16 0 11 6 15 20 11 13 -3 20 0 20 10 0 8 4 12 9 9 17 -11 29 107 13
130 -5 7 -19 3 -44 -11z m-108 -105 c0 -5 -4 -10 -10 -10 -5 0 -10 5 -10 10 0
6 5 10 10 10 6 0 10 -4 10 -10z"/>
<path d="M132 30 c4 -20 52 -20 56 0 2 11 -6 15 -28 15 -22 0 -30 -4 -28 -15z"/>
</g>
</svg>
